<svg height="512pt" viewBox="0 -1 512 512" width="512pt" xmlns="http://www.w3.org/2000/svg"><path style="fill:#5a5cff;" d="m496.792969 0c-15.332031 0-472.769531 0-481.585938 0-8.394531 0-15.207031 6.8125-15.207031 15.207031v480.164063c0 8.394531 6.8125 15.210937 15.207031 15.210937h481.585938c8.394531 0 15.207031-6.816406 15.207031-15.210937 0-4.308594 0-468.898438 0-480.164063 0-8.394531-6.8125-15.207031-15.207031-15.207031zm-15.207031 30.414062v37.769532h-255.078126l-13.109374-37.769532zm0 449.75h-451.171876v-449.75h150.792969l20.105469 57.964844c2.128906 6.113282 7.886719 10.21875 14.367188 10.21875h265.90625zm0 0"/><path style="fill:#5a5cff;" d="m69.378906 47.226562c-8.394531 0-15.207031 6.8125-15.207031 15.207032 0 8.40625 6.8125 15.207031 15.207031 15.207031 8.394532 0 15.207032-6.800781 15.207032-15.207031 0-8.394532-6.8125-15.207032-15.207032-15.207032zm0 0"/><path style="fill:#5a5cff;" d="m155.960938 47.226562h-43.59375c-20.089844 0-20.125 30.414063 0 30.414063h43.59375c20.171874 0 20.054687-30.414063 0-30.414063zm0 0"/><path style="fill:#5a5cff;" d="m176.917969 206.269531v60h-10.472657c-16.777343 0-30.414062 13.648438-30.414062 30.417969v115.578125c0 16.78125 13.636719 30.417969 30.414062 30.417969h179.109376c16.777343 0 30.414062-13.636719 30.414062-30.417969v-115.578125c0-16.769531-13.636719-30.417969-30.414062-30.417969h-138.21875v-60c0-26.835937 21.828124-48.664062 48.664062-48.664062s48.664062 21.828125 48.664062 48.664062v20.125c0 20.089844 30.417969 20.125 30.417969 0v-20.125c0-43.605469-35.476562-79.082031-79.082031-79.082031s-79.082031 35.476562-79.082031 79.082031zm168.636719 205.996094h-179.109376v-115.578125h179.109376l.019531 115.578125s0 0-.019531 0zm0 0"/><path style="fill:#5a5cff;" d="m240.792969 334.136719v40.6875c0 20.089843 30.414062 20.125 30.414062 0v-40.6875c0-20.085938-30.414062-20.121094-30.414062 0zm0 0"/></svg>