<svg height="512" viewBox="0 0 60 60" width="512" xmlns="http://www.w3.org/2000/svg"><g id="Page-1" fill="none" fill-rule="evenodd"><g id="015---Communication-Between-People" fill="rgb(0,0,0)" fill-rule="nonzero"><path style="fill:#5a5cff;" id="Shape" d="m1 52v5c0 1.6568542 1.34314575 3 3 3h22c1.6568542 0 3-1.3431458 3-3v-5c.0373035-4.6546528-2.2874534-9.0108895-6.175-11.571 2.1478747-3.7810128 1.2851949-8.556966-2.0497196-11.3476234-3.3349146-2.7906574-8.1881501-2.7977835-11.53124545-.0169317-3.34309537 2.7808518-4.21979679 7.554251-2.08303495 11.3415551-3.84613841 2.6066443-6.15300145 6.9477853-6.161 11.594zm14-23c3.8659932 0 7 3.1340068 7 7s-3.1340068 7-7 7-7-3.1340068-7-7c.00440864-3.8641657 3.1358343-6.9955914 7-7zm-6.649 13.044c1.6982021 1.8825025 4.1147079 2.9570471 6.65 2.9570471s4.9517979-1.0745446 6.65-2.9570471c3.364791 2.1887527 5.381328 5.9420976 5.349 9.956v5c0 .5522847-.4477153 1-1 1h-3v-5c0-.5522847-.4477153-1-1-1s-1 .4477153-1 1v5h-12v-5c0-.5522847-.44771525-1-1-1s-1 .4477153-1 1v5h-3c-.55228475 0-1-.4477153-1-1v-5c.01350904-4.0029174 2.01997892-7.7361287 5.351-9.956z"/><path style="fill:#5a5cff;" id="Shape" d="m31 52v5c0 1.6568542 1.3431458 3 3 3h22c1.6568542 0 3-1.3431458 3-3v-5c.0373035-4.6546528-2.2874534-9.0108895-6.175-11.571 2.1478747-3.7810128 1.2851949-8.556966-2.0497196-11.3476234-3.3349146-2.7906574-8.1881501-2.7977835-11.5312454-.0169317-3.3430954 2.7808518-4.2197968 7.554251-2.083035 11.3415551-3.8461384 2.6066443-6.1530014 6.9477853-6.161 11.594zm14-23c3.8659932 0 7 3.1340068 7 7s-3.1340068 7-7 7-7-3.1340068-7-7c.0044086-3.8641657 3.1358343-6.9955914 7-7zm-6.649 13.044c1.6982021 1.8825025 4.1147079 2.9570471 6.65 2.9570471s4.9517979-1.0745446 6.65-2.9570471c3.364791 2.1887527 5.381328 5.9420976 5.349 9.956v5c0 .5522847-.4477153 1-1 1h-3v-5c0-.5522847-.4477153-1-1-1s-1 .4477153-1 1v5h-12v-5c0-.5522847-.4477153-1-1-1s-1 .4477153-1 1v5h-3c-.5522847 0-1-.4477153-1-1v-5c.013509-4.0029174 2.0199789-7.7361287 5.351-9.956z"/><path style="fill:#5a5cff;" id="Shape" d="m4 20h11.007l-.607 4.876c-.0513049.4115563.1567567.8120679.5229814 1.0067219.3662248.194654.8145949.1430458 1.1270186-.1297219l6.575-5.753h1.375c2.209139 0 4-1.790861 4-4v-12c0-2.209139-1.790861-4-4-4h-20c-2.209139 0-4 1.790861-4 4v12c0 2.209139 1.790861 4 4 4zm-2-16c0-1.1045695.8954305-2 2-2h20c1.1045695 0 2 .8954305 2 2v12c0 1.1045695-.8954305 2-2 2h-1.75c-.2419947.000005-.475778.0877625-.658.247l-4.884 4.272.424-3.395c.0355602-.2845624-.05276-.570697-.2425222-.7857099-.1897623-.2150129-.4627022-.3382092-.7494778-.3382901h-12.14c-1.1045695 0-2-.8954305-2-2z"/><path style="fill:#5a5cff;" id="Shape" d="m5 9h2c.55228475 0 1-.44771525 1-1s-.44771525-1-1-1h-2c-.55228475 0-1 .44771525-1 1s.44771525 1 1 1z"/><path style="fill:#5a5cff;" id="Shape" d="m11 9h12c.5522847 0 1-.44771525 1-1s-.4477153-1-1-1h-12c-.5522847 0-1 .44771525-1 1s.4477153 1 1 1z"/><path style="fill:#5a5cff;" id="Shape" d="m23 11h-2c-.5522847 0-1 .4477153-1 1s.4477153 1 1 1h2c.5522847 0 1-.4477153 1-1s-.4477153-1-1-1z"/><path style="fill:#5a5cff;" id="Shape" d="m5 13h12c.5522847 0 1-.4477153 1-1s-.4477153-1-1-1h-12c-.55228475 0-1 .4477153-1 1s.44771525 1 1 1z"/><path style="fill:#5a5cff;" id="Shape" d="m56 0h-20c-2.209139 0-4 1.790861-4 4v12c0 2.209139 1.790861 4 4 4h1.375l6.577 5.753c.3124237.2727677.7607938.3243759 1.1270186.1297219.3662247-.194654.5742863-.5951656.5229814-1.0067219l-.609-4.876h11.007c2.209139 0 4-1.790861 4-4v-12c0-2.209139-1.790861-4-4-4zm2 16c0 1.1045695-.8954305 2-2 2h-12.14c-.2867756.0000809-.5597155.1232772-.7494778.3382901-.1897622.2150129-.2780824.5011475-.2425222.7857099l.424 3.395-4.884-4.272c-.182222-.1592375-.4160053-.246995-.658-.247h-1.75c-1.1045695 0-2-.8954305-2-2v-12c0-1.1045695.8954305-2 2-2h20c1.1045695 0 2 .8954305 2 2z"/><path style="fill:#5a5cff;" id="Shape" d="m55 7h-2c-.5522847 0-1 .44771525-1 1s.4477153 1 1 1h2c.5522847 0 1-.44771525 1-1s-.4477153-1-1-1z"/><path style="fill:#5a5cff;" id="Shape" d="m37 9h12c.5522847 0 1-.44771525 1-1s-.4477153-1-1-1h-12c-.5522847 0-1 .44771525-1 1s.4477153 1 1 1z"/><path style="fill:#5a5cff;" id="Shape" d="m39 11h-2c-.5522847 0-1 .4477153-1 1s.4477153 1 1 1h2c.5522847 0 1-.4477153 1-1s-.4477153-1-1-1z"/><path style="fill:#5a5cff;" id="Shape" d="m55 11h-12c-.5522847 0-1 .4477153-1 1s.4477153 1 1 1h12c.5522847 0 1-.4477153 1-1s-.4477153-1-1-1z"/></g></g></svg>