<?xml version="1.0" encoding="iso-8859-1"?>
<!-- Generator: Adobe Illustrator 19.0.0, SVG Export Plug-In . SVG Version: 6.00 Build 0)  -->
<svg version="1.1" id="Layer_1" xmlns="http://www.w3.org/2000/svg" xmlns:xlink="http://www.w3.org/1999/xlink" x="0px" y="0px"
	 viewBox="0 0 512 512" style="enable-background:new 0 0 512 512;" xml:space="preserve">
<g>
	<g>
		<path style="fill:#5a5cff;" d="M475.469,124.211c-2.172-3.61-6.858-4.775-10.469-2.607c-3.611,2.172-4.778,6.859-2.607,10.47
			c44.913,74.695,45.847,168.061,2.436,243.662c-2.099,3.654-0.838,8.317,2.816,10.415c1.198,0.688,2.503,1.014,3.792,1.014
			c2.643,0,5.213-1.375,6.623-3.832C524.225,302.936,523.232,203.647,475.469,124.211z"/>
	</g>
</g>
<g>
	<g>
		<path style="fill:#5a5cff;" d="M380.182,32.109c-77.919-43.284-174.329-42.6-251.608,1.787c-3.654,2.099-4.914,6.761-2.816,10.415
			c1.411,2.456,3.979,3.83,6.622,3.83c1.289,0,2.595-0.327,3.793-1.014c72.668-41.74,163.328-42.384,236.599-1.679
			c3.682,2.045,8.327,0.717,10.374-2.964C385.193,38.8,383.865,34.154,380.182,32.109z"/>
	</g>
</g>
<g>
	<g>
		<path style="fill:#5a5cff;" d="M45.867,123.256c-3.626-2.141-8.306-0.939-10.448,2.69C13.302,163.398,1.078,206.307,0.068,250.03
			c-1.007,43.604,9.155,86.931,29.386,125.298c1.367,2.593,4.016,4.073,6.755,4.073c1.199,0,2.417-0.284,3.552-0.883
			c3.727-1.965,5.155-6.579,3.19-10.306c-38.664-73.32-36.515-163.179,5.606-234.508C50.7,130.076,49.495,125.398,45.867,123.256z"
			/>
	</g>
</g>
<g>
	<g>
		<path style="fill:#5a5cff;" d="M383.143,469.476c-2.046-3.685-6.691-5.014-10.373-2.966c-74.032,41.127-165.394,40.073-238.432-2.747
			c-3.636-2.132-8.31-0.912-10.441,2.723c-2.131,3.634-0.911,8.309,2.723,10.44c39.717,23.286,84.522,34.955,129.361,34.955
			c42.848,0,85.727-10.661,124.198-32.032C383.862,477.803,385.19,473.158,383.143,469.476z"/>
	</g>
</g>
<g>
	<g>
		<path style="fill:#5a5cff;" d="M464.565,41.985c-19.141-19.14-50.286-19.14-69.427,0c-9.273,9.273-14.379,21.6-14.379,34.714
			c0,13.112,5.106,25.441,14.379,34.712c9.272,9.273,21.6,14.38,34.713,14.38s25.441-5.107,34.713-14.379
			C483.705,92.271,483.705,61.126,464.565,41.985z M453.775,100.622v0.001c-6.39,6.39-14.887,9.91-23.925,9.91
			c-9.038,0-17.534-3.52-23.925-9.911c-6.39-6.389-9.91-14.887-9.91-23.924c0.001-9.037,3.521-17.533,9.911-23.924
			c6.597-6.597,15.259-9.894,23.925-9.894c8.664,0,17.329,3.299,23.924,9.893C466.967,65.966,466.967,87.43,453.775,100.622z"/>
	</g>
</g>
<g>
	<g>
		<path style="fill:#5a5cff;" d="M112.383,394.167c-19.141-19.14-50.287-19.139-69.427,0c-9.273,9.272-14.379,21.6-14.379,34.713
			c0,13.114,5.106,25.441,14.379,34.714c9.572,9.571,22.141,14.355,34.713,14.355c12.57,0,25.143-4.786,34.713-14.355v-0.001
			C131.524,444.452,131.524,413.308,112.383,394.167z M101.594,452.804c-13.193,13.192-34.657,13.192-47.848,0.001
			c-6.39-6.391-9.91-14.888-9.91-23.926c0-9.037,3.52-17.534,9.91-23.924c6.596-6.596,15.26-9.894,23.925-9.894
			c8.665,0,17.328,3.298,23.925,9.894C114.785,418.148,114.785,439.612,101.594,452.804z"/>
	</g>
</g>
<g>
	<g>
		<path style="fill:#5a5cff;" d="M464.565,394.167c-19.142-19.141-50.286-19.141-69.427,0c-9.273,9.272-14.379,21.6-14.379,34.713
			c0,13.114,5.106,25.441,14.379,34.713v0.001c9.571,9.57,22.142,14.355,34.713,14.355c12.572,0,25.142-4.785,34.713-14.356
			C483.705,444.453,483.705,413.308,464.565,394.167z M453.775,452.804c-13.192,13.192-34.656,13.192-47.848,0v0.001
			c-6.39-6.391-9.91-14.888-9.91-23.926c0-9.037,3.52-17.534,9.91-23.924c13.192-13.193,34.656-13.192,47.848,0
			C466.967,418.148,466.967,439.612,453.775,452.804z"/>
	</g>
</g>
<g>
	<g>
		<path style="fill:#5a5cff;" d="M112.383,41.985c-19.141-19.14-50.287-19.139-69.427,0c-9.273,9.273-14.379,21.6-14.379,34.714
			c0,13.113,5.106,25.441,14.379,34.712c9.271,9.273,21.599,14.38,34.713,14.38c13.113,0,25.441-5.107,34.713-14.379
			C131.524,92.271,131.524,61.126,112.383,41.985z M101.595,100.623c-6.391,6.39-14.887,9.91-23.925,9.91s-17.534-3.52-23.925-9.91
			v-0.001c-6.39-6.389-9.91-14.887-9.91-23.924c0-9.037,3.52-17.533,9.91-23.924c6.597-6.597,15.259-9.894,23.925-9.894
			c8.664,0,17.329,3.298,23.925,9.893C114.786,65.966,114.786,87.43,101.595,100.623z"/>
	</g>
</g>
<g>
	<g>
		<path style="fill:#5a5cff;" d="M254.775,254.64c-16.097,0-29.193,13.096-29.193,29.193c0,5.89,0,17.304,8.568,24.004v18.933
			c0,4.214,3.416,7.629,7.629,7.629h24.917c4.213,0,7.629-3.415,7.629-7.629v-18.882c6.404-4.821,9.643-12.885,9.643-24.055
			C283.967,267.737,270.872,254.64,254.775,254.64z M263.614,296.579c-2.764,1.221-4.548,3.958-4.548,6.979v15.584h-9.658v-15.584
			c0-3.022-1.783-5.758-4.548-6.979c-2.667-1.177-4.021-3.472-4.021-12.745c0-7.684,6.252-13.935,13.935-13.935
			c7.683,0,13.935,6.252,13.935,13.935C268.709,294.329,265.268,295.849,263.614,296.579z"/>
	</g>
</g>
<g>
	<g>
		<path style="fill:#5a5cff;" d="M310.59,221.251h-7.493v-56.079c0-21.625-17.594-39.219-39.22-39.219h-18.205c-21.626,0-39.219,17.594-39.219,39.22
			v56.079h-7.493c-12.553,0-22.766,10.213-22.766,22.766v107.457c0,12.553,10.213,22.766,22.766,22.766h111.63
			c12.553,0,22.766-10.213,22.766-22.766V244.018C333.356,231.464,323.143,221.251,310.59,221.251z M221.711,165.173
			c0-13.211,10.749-23.961,23.961-23.961h18.205c13.213,0,23.961,10.749,23.961,23.961v56.079h-66.128V165.173z M318.098,351.475
			c0,4.139-3.368,7.508-7.508,7.508H198.96c-4.14,0-7.508-3.369-7.508-7.508V244.018c0-4.139,3.368-7.508,7.508-7.508h15.122h81.386
			h15.122c4.14,0,7.508,3.369,7.508,7.508V351.475z"/>
	</g>
</g>
<g>
</g>
<g>
</g>
<g>
</g>
<g>
</g>
<g>
</g>
<g>
</g>
<g>
</g>
<g>
</g>
<g>
</g>
<g>
</g>
<g>
</g>
<g>
</g>
<g>
</g>
<g>
</g>
<g>
</g>
</svg>
