<svg id="outline" height="512" viewBox="0 0 512 512" width="512" xmlns="http://www.w3.org/2000/svg"><path style="fill:#5a5cff;" d="m249.22 19.338h16v28.844h-16z" transform="matrix(.981 -.196 .196 .981 -1.625 51.113)"/><path style="fill:#5a5cff;" d="m161.539 77.157h16v32h-16z" transform="matrix(.707 -.707 .707 .707 -16.215 147.17)"/><path style="fill:#5a5cff;" d="m203.966 45.552h16v32.985h-16z" transform="matrix(.857 -.515 .515 .857 -1.713 117.904)"/><path style="fill:#5a5cff;" d="m102.142 166.416h16v28.844h-16z" transform="matrix(.196 -.981 .981 .196 -88.786 253.374)"/><path style="fill:#5a5cff;" d="m130.426 119.092h16.001v32.985h-16.001z" transform="matrix(.514 -.857 .857 .514 -49.056 184.525)"/><path style="fill:#5a5cff;" d="m141.255 223.266a24.03 24.03 0 0 0 33.941 0l1.877-1.877a286.9 286.9 0 0 1 87.08 57.016l-22.281 22.281-13.181-13.181a26.614 26.614 0 0 0 -37.638 0l-10.838 10.838a19.339 19.339 0 0 0 -4.429 20.429l-27.536 27.537a30.709 30.709 0 0 0 0 43.382l39.931 39.931a30.693 30.693 0 0 0 36.935 4.936l21.442 21.442-2.343 2.343a8 8 0 0 0 0 11.314l24 24 11.314-11.314-18.343-18.343 60.686-60.687 28.686 28.687-50.343 50.343 11.314 11.314 50.343-50.343 50.343 50.343 11.314-11.314-96-96a8 8 0 0 0 -11.314 0l-10.271 10.271-21.273-21.822a30.81 30.81 0 0 0 1.929-25.342l24.362-24.362 5.657 5.657a64 64 0 1 0 90.509-90.51l-47.428-47.428a287.118 287.118 0 0 1 -61.928-92.116l1.876-1.877a24 24 0 0 0 -33.94-33.941l-124.454 124.451a24.028 24.028 0 0 0 .001 33.942zm126.927 147.111-10.31 10.309-18.343-18.343a8 8 0 0 0 -11.314 0 25.988 25.988 0 0 1 -30.137 4.764l43.794-43.794 26.309 26.309a14.694 14.694 0 0 1 .001 20.755zm-68.682 47.932-39.932-39.932a14.676 14.676 0 0 1 0-20.754l31.966-31.966a8 8 0 0 0 0-11.314 3.317 3.317 0 0 1 0-4.686l10.838-10.839a10.615 10.615 0 0 1 15.011 0l13.175 13.182-50.343 50.343a8 8 0 0 0 0 11.314 42.014 42.014 0 0 0 53.116 5.115l13.227 13.228-26.308 26.309a14.677 14.677 0 0 1 -20.755 0zm58.377 26.377-20.691-20.686 37.021-37.021 20.423 20.949zm19.423-108.569-24.114-24.117 22.343-22.343 24.118 24.117zm118.509-16.686a48.073 48.073 0 0 1 -56.744 8.323 121.611 121.611 0 0 0 65.058-65.046 48.087 48.087 0 0 1 -8.31 56.723zm-3.375-71.257a105.353 105.353 0 0 1 -67.882 67.882l-38.41-38.41a121.556 121.556 0 0 0 67.882-67.882zm-239.87-47.536 124.456-124.451a8 8 0 1 1 11.313 11.313l-29.99 29.99 11.314 11.315 15.952-15.953a302.572 302.572 0 0 0 55.977 84.226 105.347 105.347 0 0 1 -68.126 68.127 302.554 302.554 0 0 0 -84.226-55.978l67.57-67.57-11.314-11.314-81.608 81.608a8 8 0 1 1 -11.314-11.313z"/><path style="fill:#5a5cff;" d="m339.73 259.348h16v24h-16z" transform="matrix(.707 -.707 .707 .707 -90.023 325.371)"/><path style="fill:#5a5cff;" d="m281.872 456h16v16h-16z"/></svg>